# xmcd CD database file
#
# Track frame offsets:
#	150
#	30968
#	38250
#	67126
#	91135
#	97463
#	130931
#	137843
#	158978
#	173063
#	177126
#	202123
#	242184
#
# Disc length: 3354 seconds
#
# Revision: 0
# Processed by: cddbd v1.5.2PL0 Copyright (c) Steve Scherf et al.
# Submitted via: CDex 1.70beta2
#
DISCID=b10d180d
DTITLE=Mistura - Mistura
DYEAR=2015
DGENRE=Jazz
TTITLE0=Down for the count
TTITLE1=Free 2
TTITLE2=Night Light
TTITLE3=Minotauvirus
TTITLE4=On the way to Scandinavia
TTITLE5=Scandinavian Latina
TTITLE6=On the way to Mask
TTITLE7=Mask
TTITLE8=Free 1
TTITLE9=On the way to Jasmine
TTITLE10=Jasmine
TTITLE11=Multi Kulti
TTITLE12=Free 3
EXTD=YEAR: 2015
EXTT0=
EXTT1=
EXTT2=
EXTT3=
EXTT4=
EXTT5=
EXTT6=
EXTT7=
EXTT8=
EXTT9=
EXTT10=
EXTT11=
EXTT12=
PLAYORDER=
